<?xml version="1.0" standalone="no"?><!DOCTYPE svg PUBLIC "-//W3C//DTD SVG 1.1//EN" "http://www.w3.org/Graphics/SVG/1.1/DTD/svg11.dtd"><svg t="1693293254641" class="icon" viewBox="0 0 1024 1024" version="1.1" xmlns="http://www.w3.org/2000/svg" p-id="4073" xmlns:xlink="http://www.w3.org/1999/xlink" width="200" height="200"><path d="M989.866667 984.177778H34.133333A28.444444 28.444444 0 0 1 5.688889 955.733333V68.266667a28.444444 28.444444 0 0 1 56.888889 0v859.022222H989.866667a28.444444 28.444444 0 0 1 0 56.888889z" fill="#1296db" p-id="4074"></path><path d="M546.133333 499.484444a28.103111 28.103111 0 0 1-24.007111-13.312l-163.84-259.299555a28.444444 28.444444 0 1 1 48.014222-30.378667l163.84 259.299556a28.444444 28.444444 0 0 1-8.874666 39.253333 27.192889 27.192889 0 0 1-15.132445 4.437333z" fill="#1296db" p-id="4075"></path><path d="M559.786667 513.137778a28.444444 28.444444 0 0 1-19.114667-49.493334l150.186667-136.533333a28.444444 28.444444 0 1 1 38.229333 42.097778l-150.186667 136.533333a28.103111 28.103111 0 0 1-19.114666 7.395556z" fill="#1296db" p-id="4076"></path><path d="M737.28 526.791111H559.786667a28.444444 28.444444 0 0 1 0-56.888889h177.493333a28.444444 28.444444 0 0 1 0 56.888889z" fill="#1296db" p-id="4077"></path><path d="M901.12 663.324444a27.192889 27.192889 0 0 1-10.24-1.934222l-354.986667-136.533333a28.444444 28.444444 0 1 1 20.48-53.020445l354.986667 136.533334a28.444444 28.444444 0 0 1-10.24 54.954666z" fill="#1296db" p-id="4078"></path><path d="M486.968889 808.96a27.989333 27.989333 0 0 1-6.826667-0.796444 28.558222 28.558222 0 0 1-20.821333-34.133334l64.853333-262.826666a28.444444 28.444444 0 0 1 55.296 13.653333l-64.853333 262.826667a28.558222 28.558222 0 0 1-27.648 21.276444z" fill="#1296db" p-id="4079"></path><path d="M369.777778 705.422222a28.444444 28.444444 0 0 1-20.252445-48.469333L525.880889 477.866667a28.444444 28.444444 0 1 1 40.504889 40.049777l-176.355556 178.631112a28.558222 28.558222 0 0 1-20.252444 8.874666z" fill="#1296db" p-id="4080"></path><path d="M204.8 663.324444a28.444444 28.444444 0 0 1-11.377778-54.499555l341.333334-150.186667a28.444444 28.444444 0 1 1 22.755555 52.110222l-341.333333 150.186667a29.354667 29.354667 0 0 1-11.377778 2.389333z" fill="#1296db" p-id="4081"></path><path d="M532.48 499.484444a27.534222 27.534222 0 0 1-11.377778-2.616888L193.422222 346.680889a28.444444 28.444444 0 1 1 22.755556-51.655111l327.68 150.186666a28.444444 28.444444 0 0 1-11.377778 54.272z" fill="#1296db" p-id="4082"></path><path d="M722.488889 344.746667m-48.469333 0a48.469333 48.469333 0 1 0 96.938666 0 48.469333 48.469333 0 1 0-96.938666 0Z" fill="#1296db" p-id="4083"></path><path d="M749.795556 483.555556m-48.469334 0a48.469333 48.469333 0 1 0 96.938667 0 48.469333 48.469333 0 1 0-96.938667 0Z" fill="#1296db" p-id="4084"></path><path d="M913.635556 631.466667m-48.469334 0a48.469333 48.469333 0 1 0 96.938667 0 48.469333 48.469333 0 1 0-96.938667 0Z" fill="#1296db" p-id="4085"></path><path d="M485.831111 777.102222m-48.469333 0a48.469333 48.469333 0 1 0 96.938666 0 48.469333 48.469333 0 1 0-96.938666 0Z" fill="#1296db" p-id="4086"></path><path d="M367.502222 699.733333m-48.469333 0a48.469333 48.469333 0 1 0 96.938667 0 48.469333 48.469333 0 1 0-96.938667 0Z" fill="#1296db" p-id="4087"></path><path d="M190.008889 631.466667m-48.469333 0a48.469333 48.469333 0 1 0 96.938666 0 48.469333 48.469333 0 1 0-96.938666 0Z" fill="#1296db" p-id="4088"></path><path d="M203.662222 317.44m-48.469333 0a48.469333 48.469333 0 1 0 96.938667 0 48.469333 48.469333 0 1 0-96.938667 0Z" fill="#1296db" p-id="4089"></path><path d="M367.502222 194.56m-48.469333 0a48.469333 48.469333 0 1 0 96.938667 0 48.469333 48.469333 0 1 0-96.938667 0Z" fill="#1296db" p-id="4090"></path></svg>