<?xml version="1.0" standalone="no"?><!DOCTYPE svg PUBLIC "-//W3C//DTD SVG 1.1//EN" "http://www.w3.org/Graphics/SVG/1.1/DTD/svg11.dtd"><svg t="1693291766529" class="icon" viewBox="0 0 1024 1024" version="1.1" xmlns="http://www.w3.org/2000/svg" p-id="1239" xmlns:xlink="http://www.w3.org/1999/xlink" width="200" height="200"><path d="M171.978375 649.418766l3.996011-41.962717 7.7935-142.271284 2.198062-57.348126 0-31.171953c20.681018 0.268106 38.95829 0.400113 54.837956 0.400113 11.340279 0 27.281343-0.130983 47.831378-0.400113l85.297688 155.118893 11.757788 22.789029c1.502213-22.385846 3.038196-53.769624 4.611018-94.149287 1.570775-40.378639 2.357697-68.297502 2.357697-83.758636 16.366759 0.268106 29.476335 0.400113 39.323611 0.400113 4.524037 0 17.566074-0.130983 39.124066-0.400113l-4.796236 59.546188-8.991792 165.451216-1.198292 47.756677c-17.331737-0.26606-33.529651-0.400113-48.590672-0.400113-12.532431 0-29.860075 0.134053-51.987025 0.400113-6.918573-13.057387-12.042267-22.520923-15.368012-28.386514l-33.525558-56.970526c-11.04352-18.654872-21.221324-36.514635-30.531364-53.574173-6.119371-10.79281-12.43931-22.654976-18.957771-35.580357l-4.298909 94.752014-2.047636 79.758532c-16.500812-0.26606-29.074176-0.400113-37.722136-0.400113C205.773062 649.018653 192.069969 649.152706 171.978375 649.418766z" p-id="1240" fill="#1296db"></path><path d="M672.7261 371.46936c21.311375 0 41.827641 2.866281 61.544705 8.591679 19.713994 5.729491 36.966936 14.887059 51.752688 27.475771 14.786775 12.588713 25.842575 27.075659 33.17047 43.460838 7.324826 16.385179 10.989285 35.237549 10.989285 56.548924 0 22.379707-4.02978 42.929742-12.088316 61.643965-8.061606 18.717294-19.681248 34.603099-34.868135 47.656393-15.186887 13.057387-33.304524 22.615067-54.350862 28.674063-21.049409 6.060019-42.960441 9.092076-65.74026 9.092076-22.51376 0-44.094264-2.965541-64.741513-8.891508-20.651342-5.925966-38.600133-15.517415-53.851489-28.774347-15.255449-13.252839-26.075889-28.005844-32.470529-44.26004-6.39464-16.251126-9.591449-34.3002-9.591449-54.151317 0-29.173436 6.759961-54.781674 20.281929-76.829829 13.518898-22.046109 33.56956-39.265282 60.144822-51.653427C609.482707 377.664455 639.421576 371.46936 672.7261 371.46936zM669.129178 431.615205c-15.32094 0-29.17446 3.765767-41.562605 11.290137-12.388145 7.52744-21.914102 17.983583-28.574802 31.371498-6.662747 13.387915-9.990538 27.743878-9.990538 43.061748 0 14.121626 3.027963 27.043936 9.092076 38.764885 6.060019 11.724019 15.286148 20.880563 27.674293 27.475771 12.389168 6.593162 25.508977 9.891278 39.365566 9.891278 14.785751 0 28.339442-3.697205 40.662095-11.090593 12.320607-7.393387 21.712511-17.784038 28.17469-31.171953 6.460132-13.387915 9.691733-27.406187 9.691733-42.061978 0-14.252609-2.997264-27.406187-8.991792-39.463804-5.994528-12.054547-14.786775-21.411659-26.375717-28.074406C696.704211 434.94709 683.647847 431.615205 669.129178 431.615205z" p-id="1241" fill="#1296db"></path><path d="M496.438071 980.347804c-62.223157 0-122.595152-12.190647-179.437765-36.233226-54.895261-23.217794-104.190991-56.45478-146.521075-98.783841-42.330084-42.330084-75.566046-91.626837-98.784864-146.523121C47.652811 641.965004 35.462165 581.593008 35.462165 519.368828c0-62.22418 12.190647-122.596176 36.233226-179.438789 23.218818-54.895261 56.45478-104.192014 98.784864-146.522098s91.626837-75.565023 146.521075-98.783841c56.842613-24.042579 117.214608-36.233226 179.437765-36.233226 62.22418 0 122.596176 12.190647 179.439812 36.233226 54.895261 23.218818 104.190991 56.453756 146.522098 98.783841 42.329061 42.330084 75.565023 91.626837 98.783841 146.522098 24.041556 56.842613 36.232203 117.214608 36.232203 179.438789 0 62.22418-12.190647 122.596176-36.232203 179.438789-23.218818 54.896284-56.45478 104.192014-98.783841 146.523121-42.330084 42.329061-91.626837 75.566046-146.522098 98.783841C619.034247 968.156134 558.662251 980.347804 496.438071 980.347804zM496.438071 93.183286c-234.998175 0-426.184519 191.186344-426.184519 426.185542S261.439896 945.555393 496.438071 945.555393c234.999199 0 426.185542-191.186344 426.185542-426.185542S731.43727 93.183286 496.438071 93.183286z" p-id="1242" fill="#1296db"></path></svg>