<?xml version="1.0" standalone="no"?><!DOCTYPE svg PUBLIC "-//W3C//DTD SVG 1.1//EN" "http://www.w3.org/Graphics/SVG/1.1/DTD/svg11.dtd"><svg t="1693291785840" class="icon" viewBox="0 0 1024 1024" version="1.1" xmlns="http://www.w3.org/2000/svg" p-id="1415" xmlns:xlink="http://www.w3.org/1999/xlink" width="200" height="200"><path d="M496.438071 980.347804c-62.223157 0-122.595152-12.190647-179.437765-36.233226-54.895261-23.217794-104.190991-56.45478-146.521075-98.783841-42.330084-42.330084-75.566046-91.626837-98.784864-146.523121C47.652811 641.965004 35.462165 581.593008 35.462165 519.368828c0-62.22418 12.190647-122.596176 36.233226-179.438789 23.218818-54.895261 56.45478-104.192014 98.784864-146.522098s91.626837-75.565023 146.521075-98.783841c56.842613-24.042579 117.214608-36.233226 179.437765-36.233226 62.22418 0 122.596176 12.190647 179.439812 36.233226 54.895261 23.218818 104.190991 56.453756 146.522098 98.783841 42.329061 42.330084 75.565023 91.626837 98.783841 146.522098 24.041556 56.842613 36.232203 117.214608 36.232203 179.438789 0 62.22418-12.190647 122.596176-36.232203 179.438789-23.218818 54.896284-56.45478 104.192014-98.783841 146.523121-42.330084 42.329061-91.626837 75.566046-146.522098 98.783841C619.034247 968.156134 558.662251 980.347804 496.438071 980.347804zM496.438071 93.183286c-234.998175 0-426.184519 191.186344-426.184519 426.185542S261.439896 945.555393 496.438071 945.555393c234.999199 0 426.185542-191.186344 426.185542-426.185542S731.43727 93.183286 496.438071 93.183286z" p-id="1416" fill="#1296db"></path><path d="M316.014862 369.381815c21.830191 0 42.845831 2.935865 63.041802 8.801457 20.192901 5.868661 37.865399 15.249309 53.012378 28.14399 15.146978 12.894681 26.470885 27.734668 33.977859 44.517913 7.502881 16.783245 11.257391 36.094056 11.257391 57.924247 0 22.923082-4.129041 43.974537-12.383028 63.144132-8.258081 19.172665-20.161179 35.44528-35.71748 48.815799-15.555278 13.374612-34.113959 23.164582-55.672974 29.371958-21.562085 6.207375-44.00626 9.31311-67.339688 9.31311-23.062252 0-45.167712-3.038196-66.316381-9.107425-21.152762-6.070252-39.538505-15.895015-55.161321-29.474288-15.626909-13.577227-26.711362-28.687366-33.260521-45.337581-6.54916-16.646122-9.824763-35.135218-9.824763-55.468312 0-29.883611 6.924713-56.115042 20.775162-78.700433 13.848403-22.582321 34.386158-40.220027 61.609173-52.910047C251.232416 375.727337 281.89988 369.381815 316.014862 369.381815zM312.329936 430.990988c-15.693424 0-29.883611 3.857864-42.573631 11.564383-12.69002 7.710612-22.448268 18.421558-29.269627 32.134885-6.824429 13.713326-10.234085 28.418236-10.234085 44.10859 0 14.465456 3.102664 27.701922 9.31311 39.708374 6.207375 12.008498 15.658631 21.389146 28.348652 28.14399 12.69002 6.754844 26.1291 10.130731 40.322357 10.130731 15.146978 0 29.030174-3.786233 41.652655-11.359722 12.620435-7.572466 22.239514-18.216897 28.860305-31.930223 6.616698-13.713326 9.927093-28.074406 9.927093-43.085284 0-14.59951-3.069919-28.073382-9.210779-40.424688-6.139837-12.348236-15.145955-21.933545-27.018354-28.757974C340.576257 434.403714 327.201645 430.990988 312.329936 430.990988z" p-id="1417" fill="#1296db"></path><path d="M509.847475 654.093229c2.606361-25.515117 4.458545-46.666856 5.558599-63.451124 2.056845-29.745465 4.253884-70.478168 6.588045-122.19504 1.64343-36.024471 2.469238-61.404512 2.469238-76.141144L524.463358 374.704031c22.763446 0.275269 38.444591 0.409322 47.035246 0.409322 5.724375 0 20.444635-0.134053 44.168965-0.409322l-9.674337 152.896272-4.940522 126.492926-44.37465-0.409322C550.403147 653.683906 534.793634 653.822053 509.847475 654.093229zM612.39299 506.620479l45.849234-62.379723 37.046754-51.947116 11.462053-17.58961c25.381064 0.275269 42.573631 0.409322 51.579749 0.409322 2.454912 0 18.760273-0.134053 48.919153-0.409322l-86.37523 109.008716-16.170285 21.884426 15.145955 24.168446 85.556585 124.32761-50.351781-0.409322c-10.917654 0-29.405727 0.138146-55.468312 0.409322C681.984974 620.912525 652.920008 571.753919 612.39299 506.620479z" p-id="1418" fill="#1296db"></path></svg>