<?xml version="1.0" standalone="no"?><!DOCTYPE svg PUBLIC "-//W3C//DTD SVG 1.1//EN" "http://www.w3.org/Graphics/SVG/1.1/DTD/svg11.dtd"><svg t="1693293190132" class="icon" viewBox="0 0 1024 1024" version="1.1" xmlns="http://www.w3.org/2000/svg" p-id="2625" xmlns:xlink="http://www.w3.org/1999/xlink" width="200" height="200"><path d="M977.642667 403.733333l9.877333 41.514667L51.2 668.074667l-9.877333-41.514667zM46.016 518.592l-4.928-20.757333 41.514667-9.877334 4.928 20.757334-41.514667 9.877333z m124.522667-29.653333l-4.928-20.757334 41.493333-9.877333 4.928 20.757333-41.493333 9.877334z m124.522666-29.653334l-4.928-20.757333 41.493334-9.877333 4.928 20.757333-41.493334 9.877333z m249.024-59.285333l-4.928-20.757333 41.514667-9.877334 4.928 20.757334-41.514667 9.877333z m124.522667-29.653333l-4.928-20.757334 41.514667-9.877333 4.928 20.757333-41.514667 9.877334z m124.522667-29.653334l-4.928-20.757333 41.493333-9.877333 4.928 20.757333-41.493333 9.877333z m124.522666-29.653333l-4.928-20.757333 41.493334-9.877334 4.928 20.757334-41.493334 9.877333zM41.728 799.232l-4.928-20.757333 41.514667-9.877334 4.928 20.757334-41.514667 9.877333z m124.522667-29.653333l-4.949334-20.757334 41.493334-9.898666 4.949333 20.757333-41.493333 9.898667z m249.024-59.306667l-4.928-20.757333 41.514666-9.877334 4.928 20.757334-41.514666 9.877333z m124.522666-29.653333l-4.928-20.757334 41.514667-9.898666 4.928 20.757333-41.514667 9.898667z m249.045334-59.306667l-4.928-20.757333 41.514666-9.877334 4.928 20.757334-41.514666 9.877333z m124.501333-29.653333l-4.928-20.757334 41.514667-9.898666 4.928 20.757333-41.514667 9.898667z" p-id="2626" fill="#1296db"></path><path d="M485.504 859.861333a64 64 0 0 0-77.077333-47.466666 64 64 0 1 0 77.077333 47.466666z" p-id="2627" fill="#1296db"></path><path d="M188.608 170.688m-63.978667 0a63.978667 63.978667 0 1 0 127.957334 0 63.978667 63.978667 0 1 0-127.957334 0Z" p-id="2628" fill="#1296db"></path><path d="M188.586667 362.688m-63.978667 0a63.978667 63.978667 0 1 0 127.957333 0 63.978667 63.978667 0 1 0-127.957333 0Z" p-id="2629" fill="#1296db"></path><path d="M337.92 725.354667m-63.978667 0a63.978667 63.978667 0 1 0 127.957334 0 63.978667 63.978667 0 1 0-127.957334 0Z" p-id="2630" fill="#1296db"></path><path d="M444.586667 405.354667m-63.978667 0a63.978667 63.978667 0 1 0 127.957333 0 63.978667 63.978667 0 1 0-127.957333 0Z" p-id="2631" fill="#1296db"></path><path d="M828.608 149.333333m-63.978667 0a63.978667 63.978667 0 1 0 127.957334 0 63.978667 63.978667 0 1 0-127.957334 0Z" p-id="2632" fill="#1296db"></path><path d="M679.253333 234.688m-63.978666 0a63.978667 63.978667 0 1 0 127.957333 0 63.978667 63.978667 0 1 0-127.957333 0Z" p-id="2633" fill="#1296db"></path><path d="M700.586667 640m-63.978667 0a63.978667 63.978667 0 1 0 127.957333 0 63.978667 63.978667 0 1 0-127.957333 0Z" p-id="2634" fill="#1296db"></path><path d="M849.92 768.042667m-63.978667 0a63.978667 63.978667 0 1 0 127.957334 0 63.978667 63.978667 0 1 0-127.957334 0Z" p-id="2635" fill="#1296db"></path><path d="M679.253333 874.709333m-63.978666 0a63.978667 63.978667 0 1 0 127.957333 0 63.978667 63.978667 0 1 0-127.957333 0Z" p-id="2636" fill="#1296db"></path></svg>